<?xml version="1.0" encoding="utf-8"?>
<!-- Generator: Adobe Illustrator 16.0.0, SVG Export Plug-In . SVG Version: 6.00 Build 0)  -->
<!DOCTYPE svg PUBLIC "-//W3C//DTD SVG 1.1//EN" "http://www.w3.org/Graphics/SVG/1.1/DTD/svg11.dtd">
<svg version="1.1" id="Layer_1" xmlns="http://www.w3.org/2000/svg" xmlns:xlink="http://www.w3.org/1999/xlink" x="0px" y="0px"
	 width="320px" height="81.5px" viewBox="0 0 320 81.5" style="enable-background:new 0 0 320 81.5;" xml:space="preserve">
<style type="text/css">
<![CDATA[
	.st0{fill-rule:evenodd;clip-rule:evenodd;fill:#3E3E3E;}
	.st1{fill:#96A235;}
	.st2{fill:#3E3E3E;}
]]>
</style>
<g>
	<g>
		<path class="st1" d="M166.859,35.439c-0.481-0.245-0.905-0.472-1.278-0.686l-7.398,7.4c0.425,0.258,0.846,0.492,1.256,0.705
			L166.859,35.439z"/>
		<path class="st1" d="M166.331,45.872c0.49,0.215,0.939,0.419,1.347,0.615l7.241-7.242c-0.416-0.221-0.846-0.441-1.305-0.661
			L166.331,45.872z"/>
		<path class="st1" d="M170.907,37.34l-7.344,7.347c0.482,0.203,0.943,0.399,1.375,0.583l7.318-7.321
			C171.783,37.735,171.335,37.533,170.907,37.34z"/>
		<path class="st1" d="M170.457,18.009l-18.006,18.006c0.199,0.454,0.422,0.885,0.668,1.293l18.964-18.961
			C171.542,18.21,171.003,18.098,170.457,18.009z"/>
		<path class="st1" d="M168.202,36.092l-7.421,7.418c0.501,0.227,0.963,0.423,1.374,0.591l7.385-7.386
			C169.058,36.495,168.613,36.287,168.202,36.092z"/>
		<path class="st1" d="M163.462,32.915l-7.585,7.587c0.361,0.307,0.73,0.591,1.105,0.857l7.405-7.404
			C163.959,33.61,163.663,33.275,163.462,32.915z"/>
		<path class="st1" d="M163.087,31.095c0-2.075,1.824-3.46,3.772-3.568l8.149-8.151c-0.459-0.21-0.924-0.396-1.397-0.564
			l-19.677,19.678c0.288,0.369,0.595,0.717,0.913,1.048l8.239-8.241C163.087,31.23,163.087,31.165,163.087,31.095z"/>
		<path class="st1" d="M162.429,49.772l-9.203,9.203c0.259,0.381,0.542,0.754,0.849,1.117l8.593-8.596
			C162.542,50.987,162.462,50.417,162.429,49.772z"/>
		<path class="st1" d="M163.2,52.957l-8.151,8.154c0.33,0.313,0.688,0.608,1.066,0.896l7.915-7.918
			C163.725,53.783,163.44,53.412,163.2,52.957z"/>
		<path class="st1" d="M155.113,49.18l-4.094,4.095c0.088,0.529,0.203,1.068,0.352,1.607l5.703-5.702H155.113z"/>
		<path class="st1" d="M165.185,54.93l-7.874,7.875c0.404,0.24,0.833,0.466,1.287,0.676l8.097-8.097
			C166.249,55.33,165.721,55.198,165.185,54.93z"/>
		<path class="st1" d="M151.156,49.18l-0.354,0.353v1.132c0,0.262,0.009,0.533,0.023,0.81l2.292-2.294H151.156z"/>
		<path class="st1" d="M159.068,49.18l-7.199,7.197c0.18,0.454,0.381,0.904,0.615,1.347l8.543-8.544H159.068z"/>
		<path class="st1" d="M181.321,58.571l-4.309,4.312C178.938,61.743,180.344,60.248,181.321,58.571z"/>
		<path class="st1" d="M183.122,52.815l-12.08,12.079c0.893-0.135,1.728-0.314,2.507-0.541l9.153-9.152
			C182.905,54.413,183.044,53.614,183.122,52.815z"/>
		<path class="st1" d="M183.05,48.933l-16.22,16.224c0.151,0.003,0.296,0.009,0.452,0.009c0.533,0,1.043-0.021,1.544-0.047
			l14.366-14.369C183.185,50.127,183.136,49.522,183.05,48.933z"/>
		<path class="st1" d="M182.155,45.872l-18.973,18.971c0.557,0.095,1.133,0.174,1.74,0.224l17.773-17.773
			C182.552,46.808,182.375,46.334,182.155,45.872z"/>
		<path class="st1" d="M180.589,43.485l-9.426,9.42c-0.421,0.882-1.133,1.647-2.092,2.095l-9.058,9.057
			c0.479,0.169,0.986,0.317,1.513,0.448L181.434,44.6C181.183,44.22,180.903,43.851,180.589,43.485z"/>
		<path class="st1" d="M167.468,17.763c-0.244,0-0.49,0.006-0.733,0.016l-15.139,15.138c0.074,0.57,0.188,1.112,0.333,1.628
			l16.737-16.736C168.265,17.781,167.866,17.763,167.468,17.763z"/>
		<path class="st1" d="M169.874,28.467l7.636-7.634c-0.38-0.277-0.782-0.534-1.19-0.772l-7.687,7.686
			C169.142,27.914,169.548,28.163,169.874,28.467z"/>
		<path class="st1" d="M178.249,31.959l4.081-4.083c-0.122-0.486-0.276-0.979-0.478-1.484l-5.564,5.567H178.249z"/>
		<path class="st1" d="M161.96,18.593l-10.253,10.256c-0.135,0.696-0.209,1.424-0.219,2.181l13.026-13.029
			C163.653,18.139,162.797,18.339,161.96,18.593z"/>
		<path class="st1" d="M171.58,50.499l8.035-8.038c-0.325-0.303-0.685-0.603-1.062-0.9l-7.438,7.437
			C171.376,49.438,171.529,49.924,171.58,50.499z"/>
		<path class="st1" d="M170.171,47.949l7.229-7.228c-0.38-0.254-0.779-0.507-1.204-0.759l-7.203,7.206
			C169.453,47.43,169.851,47.688,170.171,47.949z"/>
		<path class="st1" d="M182.204,31.959l0.602-0.598c-0.033-0.581-0.078-1.184-0.161-1.807l-2.403,2.405H182.204z"/>
		<path class="st1" d="M171.153,31.143l8.438-8.438c-0.308-0.346-0.63-0.678-0.975-0.988l-7.918,7.921
			C170.923,30.138,171.062,30.661,171.153,31.143z"/>
		<path class="st1" d="M152.74,25.82l5.783-5.782C156.057,21.396,153.985,23.342,152.74,25.82z"/>
		<path class="st1" d="M174.292,31.959l6.928-6.924c-0.219-0.399-0.469-0.803-0.755-1.211l-8.134,8.135H174.292z"/>
	</g>
	<g>
		<polygon class="st1" points="205.895,58.342 199.944,64.288 201.91,64.288 205.895,60.306 		"/>
		<polygon class="st1" points="209.646,28.861 214.846,23.664 214.846,21.704 207.687,28.861 		"/>
		<polygon class="st1" points="213.604,28.861 214.846,27.62 214.846,25.657 211.639,28.861 		"/>
		<polygon class="st1" points="186.281,18.615 185.217,19.681 185.217,21.642 188.242,18.615 		"/>
		<polygon class="st1" points="190.234,18.615 185.217,23.636 185.217,25.599 192.199,18.615 		"/>
		<polygon class="st1" points="205.895,38.563 194.227,50.229 194.227,52.189 205.895,40.524 		"/>
		<polygon class="st1" points="205.895,46.476 194.227,58.141 194.227,60.102 205.895,48.436 		"/>
		<polygon class="st1" points="210.016,18.615 194.227,34.405 194.227,36.366 211.977,18.615 		"/>
		<polygon class="st1" points="205.895,42.518 194.227,54.184 194.227,56.149 205.895,44.483 		"/>
		<polygon class="st1" points="205.895,30.652 194.227,42.318 194.227,44.279 205.895,32.612 		"/>
		<polygon class="st1" points="205.895,34.607 194.227,46.271 194.227,48.236 205.895,36.57 		"/>
		<polygon class="st1" points="205.895,62.298 203.906,64.288 205.865,64.288 205.895,64.26 		"/>
		<polygon class="st1" points="205.895,50.43 194.227,62.096 194.227,64.057 205.895,52.393 		"/>
		<polygon class="st1" points="194.195,18.615 185.217,27.592 185.217,28.861 185.911,28.861 196.156,18.615 		"/>
		<polygon class="st1" points="214.846,18.615 213.973,18.615 194.227,38.36 194.227,40.322 214.846,19.709 		"/>
		<polygon class="st1" points="205.895,54.387 195.991,64.288 197.957,64.288 205.895,56.348 		"/>
		<polygon class="st1" points="206.062,18.615 194.227,30.448 194.227,32.412 208.027,18.615 		"/>
		<polygon class="st1" points="198.148,18.615 187.903,28.861 189.866,28.861 200.111,18.615 		"/>
		<polygon class="st1" points="202.104,18.615 191.86,28.861 193.819,28.861 204.066,18.615 		"/>
	</g>
	<g>
		<path class="st1" d="M230.63,62.419l-0.472,0.471c0.448,0.209,0.905,0.406,1.373,0.588l1.059-1.059H230.63z"/>
		<polygon class="st1" points="243.375,29.891 239.319,33.946 239.319,35.91 245.34,29.891 		"/>
		<path class="st1" d="M251.958,45.815h-0.771l-7.197,7.196h1.964l17.974-17.974c-0.144-0.505-0.297-1.005-0.469-1.496l-11.5,11.505
			V45.815z"/>
		<path class="st1" d="M229.064,40.248L218.46,50.851c0.195,0.451,0.405,0.896,0.626,1.335l9.979-9.977V40.248z"/>
		<polygon class="st1" points="239.421,29.891 239.319,29.992 239.319,31.952 241.383,29.891 		"/>
		<path class="st1" d="M229.064,48.16l-7.678,7.682c0.277,0.367,0.57,0.73,0.876,1.079l6.802-6.802V48.16z"/>
		<path class="st1" d="M229.064,56.072l-3.78,3.781c0.362,0.291,0.732,0.574,1.113,0.845l2.667-2.665V56.072z"/>
		<path class="st1" d="M242.878,20.484l2.331-2.333c-0.562-0.099-1.133-0.184-1.712-0.246l-2.578,2.58H242.878z"/>
		<path class="st1" d="M229.064,60.025l-1.476,1.479c0.404,0.251,0.817,0.494,1.243,0.722l0.232-0.235V60.025z"/>
		<path class="st1" d="M229.064,52.115l-5.855,5.851c0.323,0.334,0.658,0.654,1.003,0.966l4.853-4.854V52.115z"/>
		<polygon class="st1" points="247.332,29.891 240.814,36.408 242.776,36.408 249.297,29.891 		"/>
		<path class="st1" d="M238.925,20.484l2.708-2.711c-0.318-0.012-0.635-0.022-0.955-0.022c-0.34,0-0.673,0.008-1.006,0.021
			l-2.713,2.712H238.925z"/>
		<path class="st1" d="M232.394,19.1c-1.136,0.393-2.197,0.86-3.199,1.385h1.819L232.394,19.1z"/>
		<path class="st1" d="M229.064,32.335l-12.293,12.292c0.074,0.567,0.16,1.131,0.272,1.692l12.021-12.023V32.335z"/>
		<path class="st1" d="M229.064,20.556c-0.062,0.034-0.129,0.066-0.19,0.101l-9.445,9.446c-0.407,0.742-0.754,1.465-1.031,2.153
			c-0.182,0.443-0.343,0.889-0.495,1.334l11.162-11.159V20.556z"/>
		<path class="st1" d="M229.064,24.424l-11.89,11.888c-0.165,0.79-0.286,1.57-0.376,2.34l12.266-12.266V24.424z"/>
		<path class="st1" d="M229.064,28.381l-12.434,12.433c-0.017,0.401-0.021,0.8-0.021,1.195c0,0.254,0.006,0.513,0.016,0.77
			l12.438-12.436V28.381z"/>
		<path class="st1" d="M229.064,20.484v0.071c0.048-0.024,0.089-0.048,0.13-0.071H229.064z"/>
		<path class="st1" d="M246.833,20.484l1.551-1.551c-0.5-0.161-1.01-0.307-1.525-0.437l-1.988,1.988H246.833z"/>
		<path class="st1" d="M234.968,20.484l2.544-2.547c-0.807,0.095-1.593,0.224-2.349,0.387l-2.16,2.161H234.968z"/>
		<path class="st1" d="M229.064,36.292l-11.636,11.633c0.145,0.503,0.294,1.002,0.466,1.495l11.17-11.166V36.292z"/>
		<path class="st1" d="M229.064,44.205l-9.275,9.273c0.239,0.407,0.497,0.809,0.76,1.202l8.516-8.515V44.205z"/>
		<polygon class="st1" points="239.319,45.815 239.319,47.778 241.283,45.815 		"/>
		<path class="st1" d="M242.496,62.419l-2.711,2.711c0.278,0.012,0.553,0.023,0.832,0.023c0.381,0,0.758-0.012,1.138-0.028
			l2.704-2.706H242.496z"/>
		<polygon class="st1" points="243.276,45.815 239.319,49.771 239.319,51.731 245.241,45.815 		"/>
		<path class="st1" d="M249.097,63.728c1.051-0.367,2.06-0.809,3.023-1.309h-1.712L249.097,63.728z"/>
		<path class="st1" d="M252.354,26.831l3.738-3.741c-0.358-0.292-0.732-0.574-1.11-0.848l-2.628,2.626V26.831z"/>
		<polygon class="st1" points="247.23,45.815 240.037,53.012 241.999,53.012 249.191,45.815 		"/>
		<path class="st1" d="M246.455,62.419l-2.521,2.52c0.806-0.101,1.602-0.239,2.372-0.411l2.106-2.108H246.455z"/>
		<path class="st1" d="M238.539,62.419l-2.351,2.351c0.566,0.098,1.137,0.184,1.719,0.244l2.595-2.595H238.539z"/>
		<path class="st1" d="M250.69,36.408l9.296-9.299c-0.282-0.371-0.571-0.732-0.877-1.084l-10.38,10.383H250.69z"/>
		<path class="st1" d="M252.354,29.891h-1.065l-6.519,6.517h1.964l11.429-11.428c-0.324-0.332-0.652-0.656-0.994-0.97l-4.814,4.813
			V29.891z"/>
		<path class="st1" d="M251.958,39.097l9.617-9.619c-0.241-0.409-0.493-0.812-0.758-1.208l-8.859,8.862V39.097z"/>
		<path class="st1" d="M263.466,49.362l-11.112,11.109v1.827c0.098-0.05,0.2-0.103,0.29-0.156l9.225-9.226
			C262.494,51.781,263.03,50.592,263.466,49.362z"/>
		<path class="st1" d="M252.354,62.419v-0.12c-0.074,0.041-0.157,0.079-0.233,0.12H252.354z"/>
		<path class="st1" d="M252.354,53.012v1.511l12.44-12.443c0.005-0.208,0.018-0.419,0.018-0.628c0-0.438-0.016-0.875-0.039-1.309
			l-12.867,12.87H252.354z"/>
		<path class="st1" d="M249.909,53.012l14.689-14.693c-0.072-0.565-0.166-1.125-0.28-1.679l-16.372,16.372H249.909z"/>
		<path class="st1" d="M250.79,20.484l0.439-0.439c-0.449-0.209-0.909-0.404-1.373-0.587l-1.03,1.027H250.79z"/>
		<path class="st1" d="M251.958,43.05l10.943-10.94c-0.199-0.454-0.407-0.899-0.628-1.338l-10.315,10.317V43.05z"/>
		<path class="st1" d="M234.584,62.419L233.003,64c0.501,0.158,1.017,0.3,1.534,0.427l2.008-2.008H234.584z"/>
		<path class="st1" d="M252.354,58.479l11.896-11.899c0.172-0.771,0.3-1.557,0.396-2.355l-12.291,12.292V58.479z"/>
		<path class="st1" d="M252.354,22.875l1.435-1.435c-0.401-0.254-0.812-0.499-1.231-0.729l-0.203,0.201V22.875z"/>
	</g>
	<g>
		<path class="st1" d="M290.222,18.759l-19.135,19.135v1.963l20.927-20.927C291.451,18.862,290.864,18.804,290.222,18.759z"/>
		<polygon class="st1" points="282.259,58.37 276.331,64.301 278.29,64.301 282.259,60.331 		"/>
		<path class="st1" d="M286.397,18.632l-15.311,15.308V35.9l17.236-17.233C287.713,18.647,287.071,18.635,286.397,18.632z"/>
		<polygon class="st1" points="282.259,50.459 271.087,61.63 271.087,63.591 282.259,52.42 		"/>
		<polygon class="st1" points="282.259,62.325 280.284,64.301 282.245,64.301 282.259,64.288 		"/>
		<polygon class="st1" points="271.087,18.628 271.087,20.076 272.536,18.628 		"/>
		<polygon class="st1" points="274.53,18.628 271.087,22.07 271.087,24.031 276.491,18.628 		"/>
		<polygon class="st1" points="282.445,18.628 271.087,29.982 271.087,31.944 284.406,18.628 		"/>
		<polygon class="st1" points="278.485,18.628 271.087,26.025 271.087,27.989 280.449,18.628 		"/>
		<polygon class="st1" points="282.259,54.413 272.37,64.301 274.335,64.301 282.259,56.377 		"/>
		<path class="st1" d="M287.322,49.982c0.467,0,0.915-0.008,1.35-0.02l16.771-16.772c-0.027-0.6-0.087-1.196-0.177-1.785
			l-18.575,18.577H287.322z"/>
		<polygon class="st1" points="282.259,39.735 282.259,38.591 271.087,49.763 271.087,51.727 283.074,39.735 		"/>
		<path class="st1" d="M286.025,28.874l9.329-9.328c-0.491-0.134-1.027-0.253-1.603-0.36l-9.687,9.688H286.025z"/>
		<path class="st1" d="M289.768,29.089l8.424-8.427c-0.412-0.223-0.85-0.433-1.336-0.623l-8.857,8.86
			C288.559,28.922,289.161,28.979,289.768,29.089z"/>
		<polygon class="st1" points="282.259,30.677 271.087,41.849 271.087,43.814 282.259,32.641 		"/>
		<path class="st1" d="M284.697,49.982l20.233-20.233c-0.13-0.508-0.285-1.007-0.464-1.497l-21.732,21.73H284.697z"/>
		<path class="st1" d="M293.006,49.583l12.132-12.127c0.143-0.744,0.235-1.497,0.286-2.25l-14.646,14.65
			C291.58,49.79,292.319,49.7,293.006,49.583z"/>
		<polygon class="st1" points="282.259,34.634 271.087,45.806 271.087,47.767 282.259,36.595 		"/>
		<path class="st1" d="M299.946,46.601l2.311-2.312c0.871-1.172,1.598-2.577,2.138-4.098l-8.752,8.75
			C297.308,48.386,298.651,47.606,299.946,46.601z"/>
		<path class="st1" d="M294.105,32.662l8.285-8.284c-0.278-0.371-0.573-0.728-0.891-1.073l-7.976,7.975
			C293.779,31.672,293.973,32.13,294.105,32.662z"/>
		<path class="st1" d="M292.58,30.233l7.918-7.92c-0.131-0.118-0.264-0.238-0.4-0.352c-0.221-0.183-0.451-0.357-0.687-0.525
			l-8.085,8.086C291.774,29.704,292.196,29.938,292.58,30.233z"/>
		<path class="st1" d="M293.666,37.059l10.208-10.209c-0.208-0.437-0.435-0.863-0.686-1.277l-8.908,8.908
			C294.249,35.54,294.024,36.384,293.666,37.059z"/>
		<path class="st1" d="M289.114,39.646l-18.027,18.027v1.966l20.789-20.792C291.013,39.316,290.029,39.543,289.114,39.646z"/>
		<path class="st1" d="M287.012,39.735h-1.941L271.087,53.72v1.959l15.942-15.943C287.023,39.735,287.021,39.735,287.012,39.735z"/>
	</g>
</g>
<g>
	<g>
		<path class="st2" d="M70.963,18.618h10.112l17.741,28.845l0.123-0.123l-0.495-28.722h11.228v45.905H99.498L82.006,36.608
			l-0.125,0.062l0.311,27.853H70.963V18.618z"/>
		<path class="st2" d="M118.047,18.618h25.494v10.298h-14.267v7.132h13.833v10.299h-13.833v7.878h14.267v10.297h-25.494V18.618z"/>
	</g>
	<path class="st0" d="M55.938,28.633c-8.694-6.415-21.329-3.379-23.548,5.027c-2.34,8.87,11.736,19.851,14.822,8.953
		c-1.433-1.91-6.158,0.63-7.074-2.347c-0.431-8.242,13.468-5.756,10.768,3.787c-1.367,4.829-5.189,6.207-7.646,6.562
		c-10.74,1.554-17.814-10.95-11.543-21.212c3.48-5.695,13.036-9.1,21.856-5.479c4.202,1.725,4.478,5.051,9.976,6.747
		c-1.104-5.184-2.684-7.867-6.195-10.719C40.457,6.224,20.496,16.625,15.531,32.322c-4.465,14.113,3.949,32.752,22.244,35.401
		c10.646,1.542,21.936-5.291,25.137-17.741C64.696,43.039,62.15,33.221,55.938,28.633z"/>
</g>
</svg>
